<?xml version="1.0" standalone="no"?>
<!DOCTYPE svg PUBLIC "-//W3C//DTD SVG 20010904//EN"
 "http://www.w3.org/TR/2001/REC-SVG-20010904/DTD/svg10.dtd">
<svg version="1.0" xmlns="http://www.w3.org/2000/svg"
 width="409.000000pt" height="302.000000pt" viewBox="0 0 409.000000 302.000000"
 preserveAspectRatio="xMidYMid meet">

<g transform="translate(0.000000,302.000000) scale(0.100000,-0.100000)"
fill="#000000" stroke="none">
<path d="M970 1280 c0 -5 8 -10 18 -10 39 0 42 -17 42 -212 l0 -188 -32 -20
-33 -20 130 1 c117 0 126 2 90 13 l-40 12 -3 97 -3 97 26 0 c33 0 75 -42 75
-75 0 -14 5 -25 10 -25 6 0 10 45 10 116 0 74 -4 113 -10 109 -5 -3 -10 -15
-10 -26 0 -28 -44 -69 -75 -69 l-26 0 3 93 3 92 62 -1 c76 -1 108 -20 124 -74
18 -60 29 -48 29 30 l0 70 -195 0 c-123 0 -195 -4 -195 -10z"/>
<path d="M1490 1280 c0 -5 8 -10 18 -10 39 0 42 -17 42 -217 l0 -193 -32 -14
c-31 -13 -25 -14 92 -14 109 0 121 1 97 12 -16 7 -33 19 -38 27 -12 20 -11
356 1 380 6 10 19 19 30 19 10 0 22 5 25 10 4 6 -37 10 -114 10 -74 0 -121 -4
-121 -10z"/>
<path d="M1930 1281 c0 -5 10 -11 23 -13 22 -3 22 -6 27 -180 4 -158 7 -179
26 -204 49 -66 176 -90 259 -49 67 33 79 71 83 263 4 161 5 162 28 168 48 12
22 24 -51 24 -41 0 -75 -4 -75 -9 0 -5 10 -11 22 -13 41 -6 49 -41 46 -193 -4
-146 -11 -174 -52 -207 -27 -22 -104 -23 -133 -3 -33 23 -43 76 -43 228 0 144
7 177 40 177 10 0 22 5 25 10 4 6 -35 10 -109 10 -65 0 -116 -4 -116 -9z"/>
<path d="M2565 1280 c3 -5 15 -10 26 -10 12 0 23 -10 29 -26 11 -29 12 -340 1
-368 -4 -10 -20 -24 -37 -31 -27 -12 -22 -13 56 -13 78 0 83 1 56 13 -17 7
-33 21 -37 31 -10 25 -11 347 -1 341 4 -3 43 -91 87 -196 44 -105 85 -191 91
-191 7 0 47 84 89 188 43 103 81 194 86 202 5 9 9 -65 9 -172 l0 -188 -32 -14
c-31 -13 -25 -14 87 -14 112 0 118 1 88 14 l-33 14 0 189 c0 104 3 196 6 205
3 9 14 16 24 16 11 0 22 5 25 10 4 6 -26 10 -83 10 l-89 0 -68 -161 c-43 -102
-71 -156 -75 -148 -4 8 -35 80 -70 162 l-62 147 -90 0 c-57 0 -87 -4 -83 -10z"/>
<path d="M1347 912 c-22 -25 -21 -55 2 -76 27 -25 72 -17 90 15 13 24 13 29
-2 53 -21 31 -66 35 -90 8z"/>
<path d="M1786 908 c-21 -30 -20 -51 3 -72 27 -25 72 -17 90 15 13 24 13 29
-2 53 -22 34 -69 36 -91 4z"/>
<path d="M2426 914 c-36 -35 -9 -94 43 -94 36 0 51 17 51 57 0 49 -59 72 -94
37z"/>
<path d="M1570 678 c-15 -6 -20 -12 -12 -15 8 -3 12 -35 12 -108 0 -73 -4
-105 -12 -108 -7 -3 5 -5 27 -5 22 0 34 2 28 5 -9 3 -13 26 -13 64 0 54 2 59
24 65 14 3 30 3 35 -1 15 -9 14 -108 -1 -123 -9 -9 -3 -12 28 -11 21 0 33 3
27 6 -8 3 -13 24 -13 53 0 67 -14 100 -42 100 -13 0 -30 -5 -38 -10 -12 -8
-16 0 -20 44 -5 52 -6 53 -30 44z"/>
<path d="M1765 680 c-4 -6 -3 -16 3 -22 6 -6 12 -6 17 2 4 6 3 16 -3 22 -6 6
-12 6 -17 -2z"/>
<path d="M598 668 c8 -8 12 -46 12 -114 0 -89 -2 -103 -17 -107 -10 -3 26 -5
80 -6 96 -1 98 -1 107 25 14 36 13 36 -15 8 -20 -20 -33 -25 -68 -22 l-42 3
-3 53 -3 52 40 0 c28 0 43 -5 50 -17 8 -14 10 -10 10 22 0 32 -2 36 -10 23 -7
-12 -22 -18 -49 -18 l-40 0 0 45 0 45 50 0 c36 0 52 -5 60 -17 9 -16 10 -15 8
7 -3 24 -5 25 -93 28 -72 2 -87 0 -77 -10z"/>
<path d="M3505 670 c-3 -5 -1 -10 4 -10 6 0 11 -13 11 -30 0 -26 -3 -30 -29
-30 -43 0 -60 -9 -76 -41 -20 -38 -19 -62 6 -93 20 -25 25 -27 81 -22 33 2 62
7 66 10 3 3 0 6 -6 6 -9 0 -12 33 -12 110 0 102 -1 110 -19 110 -11 0 -23 -4
-26 -10z m3 -92 c7 -7 12 -33 12 -60 0 -37 -4 -50 -20 -58 -17 -9 -25 -6 -45
14 -29 29 -32 62 -9 94 17 24 43 29 62 10z"/>
<path d="M1453 614 c-16 -17 -18 -24 -8 -24 11 0 15 -18 17 -72 3 -70 4 -73
29 -76 17 -2 29 3 32 12 4 11 1 13 -10 9 -22 -8 -33 15 -33 70 0 40 4 49 22
56 l22 8 -24 6 c-15 4 -21 11 -17 21 9 22 -4 18 -30 -10z"/>
<path d="M818 588 c6 -7 22 -44 37 -81 15 -38 31 -65 35 -60 4 4 21 41 38 81
27 65 28 72 12 72 -12 0 -17 -6 -14 -18 5 -16 -21 -92 -31 -92 -10 0 -36 76
-31 92 3 14 -2 18 -26 18 -23 0 -28 -3 -20 -12z"/>
<path d="M996 578 c-22 -31 -21 -101 2 -121 33 -30 102 -13 102 24 0 6 -7 3
-16 -5 -8 -9 -22 -16 -30 -16 -21 0 -54 37 -54 60 0 18 7 20 55 20 59 0 63 4
39 38 -10 15 -25 22 -49 22 -24 0 -39 -7 -49 -22z m72 -10 c3 -15 -4 -18 -32
-18 -38 0 -44 8 -24 28 17 17 52 11 56 -10z"/>
<path d="M1140 590 c-10 -6 -11 -10 -2 -10 8 0 12 -20 12 -64 0 -42 -4 -66
-12 -69 -7 -3 7 -6 32 -6 37 0 42 2 27 10 -15 9 -18 22 -17 67 1 32 2 63 1 70
-1 14 -20 15 -41 2z"/>
<path d="M1195 590 c-3 -5 -2 -10 4 -10 5 0 16 -3 25 -6 11 -4 16 -1 16 10 0
18 -35 22 -45 6z"/>
<path d="M1301 523 c42 -87 40 -115 -7 -123 -34 -6 -35 -25 -1 -25 24 0 47 39
91 158 19 50 22 67 12 67 -8 0 -13 -6 -13 -12 2 -19 -25 -98 -33 -98 -11 0
-42 88 -35 100 4 6 -5 10 -22 10 l-29 0 37 -77z"/>
<path d="M1750 590 c-10 -6 -11 -10 -2 -10 8 0 12 -20 12 -64 0 -42 -4 -66
-12 -69 -7 -3 5 -5 27 -5 22 0 34 2 28 5 -9 3 -13 29 -13 79 0 76 -6 86 -40
64z"/>
<path d="M1848 593 c-16 -4 -16 -6 -3 -19 20 -21 20 -98 -1 -118 -14 -15 -12
-16 22 -16 30 0 34 2 25 14 -17 21 -10 107 10 119 34 21 49 1 49 -62 0 -38 -4
-61 -12 -64 -7 -3 5 -5 27 -5 22 0 34 2 28 5 -9 3 -13 26 -13 67 0 35 -5 67
-12 74 -16 16 -50 15 -67 0 -11 -10 -14 -10 -18 0 -5 12 -6 13 -35 5z"/>
<path d="M2056 584 c-19 -18 -21 -55 -4 -72 8 -8 8 -15 -2 -26 -7 -9 -9 -23
-6 -32 4 -10 -1 -25 -11 -36 -17 -19 -17 -20 2 -34 42 -31 145 -2 145 41 0 23
-42 45 -83 45 -27 0 -37 4 -34 13 2 6 10 11 17 9 22 -5 69 19 75 38 3 9 3 25
-1 34 -4 11 0 16 12 17 24 2 -32 16 -68 18 -15 0 -34 -6 -42 -15z m68 -27 c8
-21 6 -31 -7 -44 -23 -23 -47 -1 -47 44 0 30 3 34 22 31 14 -2 26 -14 32 -31z
m42 -129 c11 -17 -26 -38 -67 -38 -40 0 -54 11 -45 35 7 18 101 21 112 3z"/>
<path d="M2323 521 c44 -88 41 -117 -10 -123 -31 -3 -34 -21 -5 -26 26 -4 45
23 80 113 16 44 33 88 37 98 5 12 2 17 -10 17 -9 0 -14 -4 -11 -9 6 -9 -25
-101 -34 -101 -10 0 -42 89 -35 100 4 6 -5 10 -22 10 l-29 0 39 -79z"/>
<path d="M2471 574 c-45 -57 -15 -134 52 -134 45 0 77 34 77 83 0 74 -85 107
-129 51z m81 -1 c21 -19 25 -92 6 -111 -33 -33 -78 3 -78 63 0 62 33 84 72 48z"/>
<path d="M2643 589 c13 -8 17 -24 17 -75 0 -73 12 -85 61 -67 20 8 29 8 32 0
3 -9 10 -9 28 0 13 6 18 12 12 12 -9 1 -13 22 -13 71 0 70 0 70 -27 69 -16 0
-22 -3 -15 -6 8 -3 12 -26 12 -64 0 -55 -2 -59 -26 -65 -35 -9 -44 7 -44 79 0
56 -1 57 -27 57 -24 -1 -25 -2 -10 -11z"/>
<path d="M2920 590 c-10 -6 -11 -10 -2 -10 8 0 12 -20 12 -64 0 -42 -4 -66
-12 -69 -7 -3 5 -5 27 -5 22 0 34 2 28 5 -9 3 -13 26 -13 64 0 54 2 59 24 65
38 9 46 -2 46 -61 0 -41 -4 -56 -17 -64 -14 -8 -8 -10 27 -10 25 0 39 3 33 6
-8 3 -13 24 -13 53 0 90 -26 119 -81 90 -13 -7 -19 -7 -19 0 0 13 -20 13 -40
0z"/>
<path d="M3120 580 c-25 -25 -27 -86 -4 -118 21 -31 80 -27 102 6 l15 23 -32
-18 -32 -18 -25 28 c-39 45 -32 57 31 57 60 0 70 13 37 43 -25 23 -68 21 -92
-3z m68 -12 c3 -15 -4 -18 -32 -18 -38 0 -44 8 -24 28 17 17 52 11 56 -10z"/>
<path d="M3284 592 c-34 -23 -44 -93 -18 -130 22 -32 80 -27 103 8 15 25 15
25 -5 8 -29 -25 -49 -22 -73 8 -34 44 -28 54 34 54 39 0 55 4 55 13 0 34 -65
60 -96 39z m54 -24 c3 -15 -4 -18 -33 -18 -33 0 -35 2 -25 21 14 24 53 22 58
-3z"/>
</g>
</svg>
