<svg version="1.1" id="Layer_1" xmlns="http://www.w3.org/2000/svg" xmlns:xlink="http://www.w3.org/1999/xlink" x="0px" y="0px"
	 width="100%" viewBox="0 0 409 302" enable-background="new 0 0 409 302" xml:space="preserve">
<path fill="#FEFEFE" opacity="1.000000" stroke="none" 
	d="
M247.000000,303.000000 
	C164.666687,303.000000 82.833359,303.000000 1.000033,303.000000 
	C1.000022,202.333359 1.000022,101.666733 1.000011,1.000073 
	C137.333267,1.000049 273.666534,1.000049 409.999878,1.000025 
	C409.999908,101.666595 409.999908,202.333191 409.999939,302.999878 
	C355.833344,303.000000 301.666656,303.000000 247.000000,303.000000 
M205.350266,259.792725 
	C204.998047,261.399323 203.805710,263.628357 204.449371,264.497162 
	C206.471588,267.226776 212.302811,266.704468 215.781265,264.026276 
	C218.234528,263.704102 219.942856,262.926270 218.046234,259.268799 
	C216.643082,258.259125 215.368713,256.855042 213.802841,256.343781 
	C212.011673,255.758987 209.961426,255.967834 208.060349,255.068512 
	C209.722000,254.372467 211.383667,253.676422 213.761505,252.892212 
	C215.459686,249.948944 217.157867,247.005676 218.852051,244.069336 
	C216.303925,243.473022 214.116180,242.961029 211.621155,242.134232 
	C211.080170,242.210770 210.539200,242.287308 210.026901,243.161438 
	C213.359375,245.343201 214.975494,248.062241 212.063339,251.920090 
	C209.563950,250.198059 207.064560,248.476044 203.866180,246.272430 
	C204.662186,249.147842 205.339752,251.595428 205.740158,254.717102 
	C205.810242,256.501892 205.880325,258.286682 206.053436,260.042877 
	C206.053436,260.042877 206.045822,259.936249 205.350266,259.792725 
M255.012360,259.771088 
	C255.701096,259.168884 256.389832,258.566681 257.749420,257.837067 
	C262.240753,253.442322 263.151489,248.553452 259.446655,245.366028 
	C257.564819,243.746994 254.581329,243.408463 251.736984,242.945251 
	C251.595322,243.224152 251.453644,243.503052 251.311981,243.781967 
	C251.499512,243.837830 251.687042,243.893677 251.874557,243.949539 
	C251.968185,243.482697 252.061798,243.015869 252.929459,242.185623 
	C258.610931,247.472122 259.484558,250.774841 256.155487,257.143127 
	C255.693726,257.905426 255.231979,258.667725 254.020386,259.499603 
	C248.757843,256.043488 248.072632,250.902542 248.991608,245.033081 
	C245.628006,247.540146 244.822006,250.677094 246.020432,254.182739 
	C247.327209,258.005402 250.420853,259.606262 255.012360,259.771088 
M275.959625,257.648224 
	C277.561340,257.955994 279.163055,258.263733 279.531677,258.334564 
	C279.249176,252.750153 279.006561,247.954056 278.751770,242.917587 
	C277.107849,243.010834 275.749390,243.087891 274.626434,243.151581 
	C277.484558,248.027405 275.568420,252.880219 274.919830,256.724640 
	C274.612579,256.821991 274.305328,256.919373 273.113312,257.004852 
	C270.034912,257.480408 269.425262,255.559097 269.404388,253.133591 
	C269.376251,249.858017 269.397400,246.582016 269.397400,243.259354 
	C267.730194,243.259354 266.512054,243.259354 266.579803,243.259354 
	C266.579803,247.036057 266.465393,250.532318 266.606506,254.018265 
	C266.820679,259.309784 269.094147,260.461639 274.439087,257.856323 
	C274.677917,257.596039 274.970825,257.499512 275.959625,257.648224 
M236.481628,260.933472 
	C238.530823,258.256287 241.087982,256.077637 237.308029,252.306000 
	C235.231888,250.234421 234.872055,246.442764 233.639267,243.163025 
	C232.849213,243.163025 231.134216,243.163025 229.657120,243.163025 
	C231.726852,247.621689 233.875885,251.900574 235.666534,256.324554 
	C236.196564,257.633972 235.716400,259.352264 235.877579,260.803955 
	C235.877579,260.803955 235.801636,261.006042 235.801636,261.006042 
	C235.801636,261.006042 235.771149,260.757141 236.481628,260.933472 
M189.738022,246.813934 
	C191.653534,244.831314 194.600922,243.255783 195.533875,246.553238 
	C196.612244,250.364594 195.710220,254.736298 195.667969,258.874329 
	C196.562714,258.874329 198.514206,258.874329 199.546249,258.874329 
	C199.373489,255.098831 199.275543,251.458054 199.023941,247.827927 
	C198.687149,242.968658 196.034256,241.543442 191.669540,243.657974 
	C190.939148,244.011826 189.935852,243.802383 188.929352,243.143677 
	C187.498978,243.483704 186.068604,243.823746 185.308472,244.004440 
	C185.308472,249.429993 185.308472,254.041641 185.308472,258.734802 
	C186.398315,258.734802 188.115311,258.734802 189.152359,258.734802 
	C189.152359,254.741989 189.152359,251.019608 189.738022,246.813934 
M163.122391,243.941193 
	C162.425079,243.697266 161.136032,243.483734 161.121704,243.204727 
	C160.973312,240.315765 161.030457,237.416275 161.030457,233.875366 
	C158.812469,234.932709 157.417160,235.597870 155.908905,236.316864 
	C158.593079,239.445160 158.883682,254.550049 156.570847,258.803711 
	C158.707474,258.803711 160.762299,258.803711 162.998825,258.803711 
	C159.746017,254.400085 160.336380,247.586243 164.821045,244.826599 
	C165.777878,245.564621 167.501877,246.245880 167.561401,247.050278 
	C167.849838,250.948898 167.691544,254.880554 167.691544,258.740570 
	C168.024353,258.740570 169.428101,258.740570 170.027512,258.740570 
	C170.027512,254.952698 170.000504,251.433823 170.033997,247.915527 
	C170.081329,242.942047 168.793243,242.042877 163.122391,243.941193 
M351.393982,242.956238 
	C350.319855,242.956238 349.245728,242.956238 348.171600,242.956238 
	C348.195282,243.258240 348.218964,243.560242 348.242645,243.862244 
	C349.127472,243.923309 350.012268,243.984375 351.328949,244.690903 
	C351.838898,247.548279 352.571747,250.391632 352.752960,253.269714 
	C352.829224,254.480865 351.839233,256.750885 351.161316,256.818909 
	C349.571442,256.978455 346.963104,256.581329 346.415558,255.541473 
	C345.271545,253.368774 345.008240,250.653503 344.756958,248.123978 
	C344.637817,246.924103 345.377197,245.638947 345.945068,243.618790 
	C340.874847,247.819565 339.858063,251.922775 342.254608,255.935074 
	C344.789825,260.179657 350.442261,260.751801 356.345673,258.005005 
	C356.345673,249.895493 356.345673,242.214432 356.345673,233.692429 
	C353.637634,234.918747 352.205536,235.567261 350.773438,236.215775 
	C351.305481,236.358948 351.837524,236.502136 352.369568,236.645309 
	C352.235596,238.848404 352.101654,241.051514 351.393982,242.956238 
M262.003204,123.141403 
	C262.283112,122.986885 262.670441,122.903847 262.827545,122.667656 
	C272.273193,108.467606 272.904724,93.080353 268.917572,76.327034 
	C267.250366,72.583115 265.583160,68.839195 263.910706,64.382973 
	C262.273407,61.922256 260.636078,59.461540 258.931641,56.311409 
	C255.983429,53.068501 253.190475,49.662395 250.023438,46.649548 
	C248.368484,45.075180 246.055710,44.192310 243.927734,42.312153 
	C242.402496,41.105305 241.009460,39.659458 239.330414,38.730667 
	C228.967087,32.998077 217.857315,30.342728 205.126343,30.988947 
	C193.723358,31.747740 183.150284,34.852158 173.378906,42.268036 
	C171.251083,44.199192 169.123276,46.130344 166.320374,48.106110 
	C164.569839,49.761372 162.819305,51.416634 160.635986,53.584164 
	C148.104172,69.381355 143.237335,86.976456 148.134186,107.624016 
	C149.109741,110.421204 150.085312,113.218391 151.118393,116.730774 
	C156.267258,129.163742 164.553101,138.924881 176.620010,146.323868 
	C188.436249,153.586349 201.311111,156.054245 215.636719,154.917007 
	C216.227219,154.708633 216.817734,154.500275 218.069626,154.371384 
	C218.722031,154.258774 219.374451,154.146164 220.823425,154.098145 
	C236.337601,150.864014 248.969742,142.941193 258.597839,130.412704 
	C260.090668,128.470200 260.433502,125.643929 262.003204,123.141403 
M275.894806,176.269928 
	C275.151215,175.488419 274.431519,174.058228 273.660156,174.029785 
	C268.301178,173.832062 262.931488,173.925430 256.342926,173.925430 
	C263.389679,177.882416 263.389832,177.882416 263.390015,185.531662 
	C263.390198,192.861877 263.458191,200.192947 263.366364,207.522018 
	C263.304047,212.494751 265.252411,218.558960 257.401428,219.858612 
	C262.590729,219.858612 267.780029,219.858612 272.529358,219.858612 
	C270.563477,218.056778 267.085938,216.381058 266.992035,214.533356 
	C266.458557,204.036636 266.733612,193.498840 266.733612,182.975006 
	C267.032715,182.893127 267.331818,182.811234 267.630920,182.729340 
	C273.054169,195.372971 278.477386,208.016602 283.900635,220.660233 
	C284.431793,220.675781 284.962952,220.691330 285.494141,220.706863 
	C291.018921,207.485306 296.543701,194.263733 302.068481,181.042175 
	C303.004486,190.217819 303.064209,199.032822 302.980835,207.846466 
	C302.934998,212.689499 304.826904,218.588699 297.195740,220.037964 
	C304.564941,220.037964 311.934143,220.037964 319.303345,220.037964 
	C312.346130,218.333099 313.885712,212.874619 313.847229,208.243149 
	C313.786285,200.913437 313.776428,193.582306 313.850647,186.252838 
	C313.898193,181.553909 312.289093,176.016434 319.839294,174.445602 
	C314.637390,173.896835 310.021149,173.659134 305.454437,174.030548 
	C303.932495,174.154312 301.848785,175.509949 301.202637,176.865341 
	C298.271515,183.013397 295.775055,189.368027 293.095795,195.637039 
	C291.727631,198.838272 290.303894,202.015762 288.541534,206.033264 
	C284.113251,195.663147 280.134430,186.345490 275.894806,176.269928 
M211.344971,212.475723 
	C210.983765,203.855270 210.501862,195.237549 210.307190,186.613327 
	C210.192749,181.544373 208.766754,175.520584 216.677536,174.286057 
	C209.147278,174.286057 201.617020,174.286057 194.086761,174.286057 
	C200.199722,175.781967 199.165833,180.523529 199.178772,184.710556 
	C199.197800,190.868469 199.169098,197.026550 199.188049,203.184464 
	C199.229553,216.674683 207.971161,223.894440 221.351471,221.506851 
	C230.534943,219.868134 234.295547,216.369736 235.165787,207.193283 
	C235.838837,200.096329 235.545441,192.909027 235.716522,185.762695 
	C235.822418,181.339508 234.337860,176.191650 240.649155,174.390656 
	C235.797073,174.390656 230.944992,174.390656 226.896530,174.390656 
	C228.673630,176.446472 231.986755,178.500946 232.101639,180.720947 
	C232.590454,190.166412 232.410172,199.675964 231.897491,209.130859 
	C231.655777,213.588593 228.634384,216.737915 224.150131,217.886597 
	C218.452362,219.346146 215.029602,217.968460 211.344971,212.475723 
M114.974197,189.430115 
	C114.974617,186.430954 115.102249,183.424896 114.939926,180.434570 
	C114.775246,177.401001 116.162415,176.215515 119.041374,176.165787 
	C127.714111,176.016037 133.609146,178.113297 134.917007,186.288864 
	C134.998734,186.799728 135.528961,187.238815 136.517654,188.691559 
	C136.517654,183.078522 136.517654,178.620850 136.517654,174.461304 
	C123.536819,174.461304 110.799187,174.461304 98.061554,174.461304 
	C103.794724,177.116669 103.802345,177.116669 103.808510,183.599045 
	C103.816429,191.930008 103.810745,200.260986 103.810631,208.591949 
	C103.810524,216.239609 103.810349,216.239609 97.614685,219.897491 
	C106.018852,219.897491 114.077698,219.897491 122.136551,219.897491 
	C119.204597,218.150818 114.833679,218.739059 114.955475,213.582108 
	C115.076950,208.438660 114.982117,203.290085 114.982117,198.098816 
	C122.797852,197.138733 124.446747,202.706329 126.792320,207.961014 
	C126.792320,200.435135 126.792320,192.909241 126.792320,185.383347 
	C124.508461,190.664124 122.669098,196.037766 114.974388,195.011108 
	C114.974388,193.359070 114.974388,191.875748 114.974197,189.430115 
M156.159637,183.709442 
	C156.159836,192.203110 156.013397,200.700287 156.216599,209.189102 
	C156.333786,214.085266 156.567795,218.704880 150.084427,219.944763 
	C158.001404,219.944763 165.918381,219.944763 174.612793,219.944763 
	C167.392853,216.535645 167.392319,216.535645 167.391464,208.471039 
	C167.390717,201.309723 167.348160,194.148041 167.405792,186.987198 
	C167.447342,181.823898 165.571609,175.639450 173.631363,174.444183 
	C165.800293,174.444183 157.969223,174.444183 150.138153,174.444183 
	C149.791382,174.895844 149.444595,175.347504 149.097824,175.799179 
	C155.435364,175.053726 156.607697,178.286011 156.159637,183.709442 
M77.695930,258.873932 
	C78.190102,257.769623 78.684265,256.665344 78.762459,256.490601 
	C74.800705,256.687012 70.669380,257.696930 67.172340,256.629272 
	C65.945450,256.254700 66.276421,250.777390 65.833893,247.116028 
	C69.730270,247.311813 72.754723,247.463791 75.779182,247.615753 
	C75.923393,246.994812 76.067612,246.373871 76.211830,245.752914 
	C73.313438,244.478180 69.505028,246.958466 66.422760,245.269012 
	C66.422760,242.190262 66.422760,238.971191 66.422760,235.500381 
	C64.873344,235.500381 63.354820,235.500381 61.365547,235.500381 
	C61.365547,243.448380 61.365547,251.111206 61.365547,259.022400 
	C65.907059,259.022400 71.371796,259.022400 77.695930,258.873932 
M103.453339,255.396881 
	C102.501839,253.504379 101.550346,251.611862 100.164253,248.854950 
	C104.871162,248.854950 108.248093,248.854950 111.907211,248.854950 
	C111.107903,244.847260 109.354820,242.374619 105.517464,242.707520 
	C101.726112,243.036423 99.217110,245.195053 98.690758,249.207047 
	C98.158211,253.266251 98.657326,257.049469 102.818054,258.913574 
	C105.500397,260.115326 108.184082,259.710632 110.110054,256.682129 
	C107.809959,256.376801 105.971283,256.132721 103.453339,255.396881 
M326.148407,248.165070 
	C326.561066,251.036255 326.348206,254.234222 327.615021,256.659180 
	C328.407074,258.175354 331.372833,258.960205 333.471863,259.230988 
	C334.647736,259.382690 336.045197,257.816986 337.342834,257.025116 
	C330.626587,256.889954 328.704651,255.211929 328.911133,249.057343 
	C332.187378,249.057343 335.474365,249.057343 340.473755,249.057343 
	C338.188080,246.368912 337.063385,243.861832 335.231750,243.134079 
	C331.215363,241.538300 328.788727,244.731384 326.148407,248.165070 
M315.379272,259.088654 
	C318.146118,259.536621 320.909485,259.976898 322.090851,256.165833 
	C315.752167,257.069366 313.775543,255.415512 313.538025,248.930237 
	C316.952881,248.930237 320.355927,248.930237 323.976013,248.930237 
	C323.589203,245.091461 321.642365,242.101944 318.467987,242.913620 
	C315.641785,243.636307 312.388153,246.313110 311.210663,248.965454 
	C309.641327,252.500412 310.818909,256.504120 315.379272,259.088654 
M134.034821,216.277740 
	C135.989655,217.933456 137.779282,220.547745 139.954849,220.922684 
	C141.520035,221.192444 144.483582,218.812958 145.181351,216.987549 
	C145.780182,215.420990 144.630905,212.359909 143.235977,211.021545 
	C139.846848,207.769974 135.567886,210.006485 134.034821,216.277740 
M187.043243,220.425827 
	C187.905167,218.274689 189.584702,216.033646 189.361313,214.001831 
	C189.193192,212.472717 186.693222,210.272278 185.033600,210.080399 
	C183.152618,209.862915 180.385056,211.051208 179.247040,212.564102 
	C178.257919,213.879028 178.172943,217.518936 179.160217,218.322006 
	C181.027451,219.840912 183.950958,220.061279 187.043243,220.425827 
M252.269470,218.995514 
	C254.114334,214.143280 252.986465,210.398804 249.043213,210.080872 
	C246.990341,209.915344 243.856949,211.095779 242.906815,212.682999 
	C241.947662,214.285294 242.293701,217.729385 243.475311,219.323105 
	C245.665512,222.277161 248.930069,221.866760 252.269470,218.995514 
M146.588043,245.320404 
	C146.610977,248.633514 146.481705,251.956436 146.694672,255.257278 
	C146.972168,259.558411 148.694550,260.263184 152.511749,258.156982 
	C146.323242,252.647369 151.969604,244.841049 149.077499,238.660660 
	C147.721237,240.126541 146.441605,241.387390 145.366714,242.803635 
	C145.206268,243.015030 146.007599,243.956406 146.588043,245.320404 
M135.001801,261.443939 
	C135.994904,258.824768 136.988007,256.205627 137.989731,253.563705 
	C134.528503,252.924973 131.750076,247.434509 132.628723,243.112366 
	C130.854614,243.112366 129.097916,243.112366 127.249733,243.112366 
	C132.978424,254.963181 135.770538,256.553467 132.723999,264.487152 
	C132.231293,263.994781 131.738586,263.502411 131.245895,263.010040 
	C132.332367,262.660919 133.418854,262.311798 135.001801,261.443939 
M293.999359,255.819046 
	C293.534729,256.766937 293.070068,257.714813 292.537384,258.801483 
	C294.652954,258.801483 296.712616,258.801483 297.449310,258.801483 
	C297.449310,253.327927 297.449310,248.065140 297.449310,241.927170 
	C294.772583,243.200638 293.537476,243.788254 293.585846,243.765244 
	C293.754974,248.105103 293.888611,251.534546 293.999359,255.819046 
M307.423767,257.867432 
	C306.973083,254.397415 306.675659,250.897324 306.003540,247.470749 
	C305.693054,245.887802 305.015839,243.755173 303.839325,243.135666 
	C302.622406,242.494843 300.598694,243.386154 298.927887,243.607269 
	C304.200043,245.325638 305.698517,251.655701 302.277679,259.099976 
	C304.247711,258.939667 305.983948,258.798370 307.423767,257.867432 
M115.901230,243.625290 
	C115.586929,244.115921 114.884811,244.785294 115.016258,245.070496 
	C117.139221,249.676758 116.376251,254.227325 114.973137,258.831909 
	C116.513588,258.831909 118.098183,258.831909 119.659706,258.831909 
	C119.659706,254.590820 119.843193,250.558044 119.564476,246.557480 
	C119.460907,245.071060 120.326958,241.655762 115.901230,243.625290 
M86.915375,242.987747 
	C85.360756,242.987747 83.806137,242.987747 82.291481,242.987747 
	C84.760643,248.603394 87.076942,253.871384 89.393250,259.139404 
	C89.894943,259.010925 90.396637,258.882477 90.898331,258.754028 
	C90.645294,257.301361 90.442032,255.837906 90.129509,254.398148 
	C89.324173,250.688110 88.470490,246.988556 86.915375,242.987747 
M180.062271,254.015076 
	C180.062271,250.311569 180.062271,246.608063 180.062271,242.352371 
	C178.009811,243.170746 176.719650,243.685165 176.320541,243.844299 
	C176.320541,249.304611 176.320541,254.088150 176.320541,258.889587 
	C177.784485,258.889587 179.569489,258.889587 181.294968,258.889587 
	C180.858109,257.465851 180.461929,256.174744 180.062271,254.015076 
M72.331291,237.022339 
	C74.126419,236.921661 75.921539,236.820984 77.716667,236.720306 
	C77.681091,236.321426 77.645515,235.922531 77.609932,235.523636 
	C73.898499,235.523636 70.187057,235.523636 66.475616,235.523636 
	C66.446175,235.917969 66.416733,236.312286 66.387291,236.706619 
	C68.052422,236.811859 69.717545,236.917099 72.331291,237.022339 
M60.480595,235.935532 
	C60.375187,235.682175 60.269783,235.428818 60.164379,235.175461 
	C60.080116,235.420547 59.995853,235.665619 60.480595,235.935532 
M207.761124,244.149734 
	C207.763824,244.380173 207.754684,244.612411 207.788986,244.838043 
	C207.792145,244.858856 208.201050,244.854279 208.203766,244.833344 
	C208.233139,244.606110 208.218933,244.373245 207.761124,244.149734 
z"/>
<path fill="#202020" opacity="1.000000" stroke="none" 
	d="
M276.025208,176.648880 
	C280.134430,186.345490 284.113251,195.663147 288.541534,206.033264 
	C290.303894,202.015762 291.727631,198.838272 293.095795,195.637039 
	C295.775055,189.368027 298.271515,183.013397 301.202637,176.865341 
	C301.848785,175.509949 303.932495,174.154312 305.454437,174.030548 
	C310.021149,173.659134 314.637390,173.896835 319.839294,174.445602 
	C312.289093,176.016434 313.898193,181.553909 313.850647,186.252838 
	C313.776428,193.582306 313.786285,200.913437 313.847229,208.243149 
	C313.885712,212.874619 312.346130,218.333099 319.303345,220.037964 
	C311.934143,220.037964 304.564941,220.037964 297.195740,220.037964 
	C304.826904,218.588699 302.934998,212.689499 302.980835,207.846466 
	C303.064209,199.032822 303.004486,190.217819 302.068481,181.042175 
	C296.543701,194.263733 291.018921,207.485306 285.494141,220.706863 
	C284.962952,220.691330 284.431793,220.675781 283.900635,220.660233 
	C278.477386,208.016602 273.054169,195.372971 267.630920,182.729340 
	C267.331818,182.811234 267.032715,182.893127 266.733612,182.975006 
	C266.733612,193.498840 266.458557,204.036636 266.992035,214.533356 
	C267.085938,216.381058 270.563477,218.056778 272.529358,219.858612 
	C267.780029,219.858612 262.590729,219.858612 257.401428,219.858612 
	C265.252411,218.558960 263.304047,212.494751 263.366364,207.522018 
	C263.458191,200.192947 263.390198,192.861877 263.390015,185.531662 
	C263.389832,177.882416 263.389679,177.882416 256.342926,173.925430 
	C262.931488,173.925430 268.301178,173.832062 273.660156,174.029785 
	C274.431519,174.058228 275.151215,175.488419 276.025208,176.648880 
z"/>
<path fill="#FEDFDF" opacity="1.000000" stroke="none" 
	d="
M205.995163,31.007999 
	C217.857315,30.342728 228.967087,32.998077 239.330414,38.730667 
	C241.009460,39.659458 242.402496,41.105305 243.620422,42.690865 
	C242.143906,43.730740 240.974686,44.391895 238.467026,45.809902 
	C246.137970,49.990978 252.568375,53.495899 258.998779,57.000820 
	C260.636078,59.461540 262.273407,61.922256 263.488708,64.720695 
	C254.377792,65.372284 245.688889,65.686142 236.994614,65.533287 
	C236.989227,58.871540 236.989227,52.676506 236.989227,45.844044 
	C223.396500,50.899368 209.704620,55.991566 196.007156,60.676662 
	C196.638763,57.911678 197.129074,55.501904 197.940231,53.205463 
	C200.561707,45.783882 203.301163,38.403969 205.995163,31.007999 
z"/>
<path fill="#FD9292" opacity="1.000000" stroke="none" 
	d="
M148.138840,106.862839 
	C143.237335,86.976456 148.104172,69.381355 161.125519,53.551945 
	C162.435089,56.208626 163.343979,58.874084 164.060654,61.590263 
	C168.406525,78.061127 172.708557,94.543571 177.026367,111.267197 
	C177.027496,111.512245 177.046967,112.001961 176.774689,112.005478 
	C176.321320,112.021225 176.140198,112.033447 175.566803,111.974731 
	C166.162628,110.223473 157.150742,108.543159 148.138840,106.862839 
z"/>
<path fill="#FDB0B0" opacity="1.000000" stroke="none" 
	d="
M177.025238,111.022141 
	C172.708557,94.543571 168.406525,78.061127 164.060654,61.590263 
	C163.343979,58.874084 162.435089,56.208626 161.341919,53.295811 
	C162.819305,51.416634 164.569839,49.761372 166.861572,48.354256 
	C175.601028,52.417534 183.799271,56.232666 192.002899,60.022961 
	C192.008255,59.998123 191.957672,60.003071 192.051758,60.243614 
	C192.431824,60.667683 192.717789,60.851212 193.194077,61.293133 
	C193.987518,61.752869 194.590652,61.954212 195.137726,62.469376 
	C195.024185,63.205566 194.966690,63.627930 194.596924,64.205292 
	C192.521759,68.767326 190.644745,73.132729 189.018417,77.589607 
	C184.959976,88.711632 181.015472,99.875229 177.025238,111.022141 
z"/>
<path fill="#FDB0B0" opacity="1.000000" stroke="none" 
	d="
M237.000000,66.000000 
	C245.688889,65.686142 254.377792,65.372284 263.491333,65.076843 
	C265.583160,68.839195 267.250366,72.583115 268.636505,76.906227 
	C267.236572,81.094803 266.094849,84.697281 265.003204,88.314880 
	C262.016998,98.211044 259.051880,108.113564 255.710419,117.963593 
	C254.686554,116.842567 253.817703,115.846672 253.408844,114.688400 
	C250.503571,106.458031 247.800720,98.155060 244.819733,89.952881 
	C242.023071,82.257919 238.963928,74.658356 235.975281,66.788803 
	C235.930298,66.560791 235.824966,66.108055 236.118317,66.076630 
	C236.607788,66.030144 236.803894,66.015068 237.000000,66.000000 
z"/>
<path fill="#FC6363" opacity="1.000000" stroke="none" 
	d="
M215.007858,154.799820 
	C201.311111,156.054245 188.436249,153.586349 176.290039,145.683105 
	C176.351532,134.717850 176.743011,124.393379 177.470093,114.083801 
	C185.570435,120.935364 193.382828,127.718864 201.085114,134.625168 
	C207.459091,140.340424 213.703064,146.200653 220.007141,152.336121 
	C220.015381,153.128235 220.021118,153.580902 220.026855,154.033554 
	C219.374451,154.146164 218.722031,154.258774 217.414673,154.241989 
	C216.175751,154.341675 215.591812,154.570755 215.007858,154.799820 
z"/>
<path fill="#222222" opacity="1.000000" stroke="none" 
	d="
M211.549377,212.842926 
	C215.029602,217.968460 218.452362,219.346146 224.150131,217.886597 
	C228.634384,216.737915 231.655777,213.588593 231.897491,209.130859 
	C232.410172,199.675964 232.590454,190.166412 232.101639,180.720947 
	C231.986755,178.500946 228.673630,176.446472 226.896530,174.390656 
	C230.944992,174.390656 235.797073,174.390656 240.649155,174.390656 
	C234.337860,176.191650 235.822418,181.339508 235.716522,185.762695 
	C235.545441,192.909027 235.838837,200.096329 235.165787,207.193283 
	C234.295547,216.369736 230.534943,219.868134 221.351471,221.506851 
	C207.971161,223.894440 199.229553,216.674683 199.188049,203.184464 
	C199.169098,197.026550 199.197800,190.868469 199.178772,184.710556 
	C199.165833,180.523529 200.199722,175.781967 194.086761,174.286057 
	C201.617020,174.286057 209.147278,174.286057 216.677536,174.286057 
	C208.766754,175.520584 210.192749,181.544373 210.307190,186.613327 
	C210.501862,195.237549 210.983765,203.855270 211.549377,212.842926 
z"/>
<path fill="#1B1B1B" opacity="1.000000" stroke="none" 
	d="
M114.974289,189.911270 
	C114.974388,191.875748 114.974388,193.359070 114.974388,195.011108 
	C122.669098,196.037766 124.508461,190.664124 126.792320,185.383347 
	C126.792320,192.909241 126.792320,200.435135 126.792320,207.961014 
	C124.446747,202.706329 122.797852,197.138733 114.982117,198.098816 
	C114.982117,203.290085 115.076950,208.438660 114.955475,213.582108 
	C114.833679,218.739059 119.204597,218.150818 122.136551,219.897491 
	C114.077698,219.897491 106.018852,219.897491 97.614685,219.897491 
	C103.810349,216.239609 103.810524,216.239609 103.810631,208.591949 
	C103.810745,200.260986 103.816429,191.930008 103.808510,183.599045 
	C103.802345,177.116669 103.794724,177.116669 98.061554,174.461304 
	C110.799187,174.461304 123.536819,174.461304 136.517654,174.461304 
	C136.517654,178.620850 136.517654,183.078522 136.517654,188.691559 
	C135.528961,187.238815 134.998734,186.799728 134.917007,186.288864 
	C133.609146,178.113297 127.714111,176.016037 119.041374,176.165787 
	C116.162415,176.215515 114.775246,177.401001 114.939926,180.434570 
	C115.102249,183.424896 114.974617,186.430954 114.974289,189.911270 
z"/>
<path fill="#1B1B1B" opacity="1.000000" stroke="none" 
	d="
M156.159302,183.238052 
	C156.607697,178.286011 155.435364,175.053726 149.097824,175.799179 
	C149.444595,175.347504 149.791382,174.895844 150.138153,174.444183 
	C157.969223,174.444183 165.800293,174.444183 173.631363,174.444183 
	C165.571609,175.639450 167.447342,181.823898 167.405792,186.987198 
	C167.348160,194.148041 167.390717,201.309723 167.391464,208.471039 
	C167.392319,216.535645 167.392853,216.535645 174.612793,219.944763 
	C165.918381,219.944763 158.001404,219.944763 150.084427,219.944763 
	C156.567795,218.704880 156.333786,214.085266 156.216599,209.189102 
	C156.013397,200.700287 156.159836,192.203110 156.159302,183.238052 
z"/>
<path fill="#FFC0C0" opacity="1.000000" stroke="none" 
	d="
M177.134491,114.068909 
	C176.743011,124.393379 176.351532,134.717850 175.992310,145.507523 
	C164.553101,138.924881 156.267258,129.163742 151.505859,116.367035 
	C154.324738,115.666237 156.766144,115.388443 159.185516,114.980133 
	C164.782364,114.035583 170.368576,113.027817 175.959091,112.045677 
	C176.140198,112.033447 176.321320,112.021225 176.751953,112.009186 
	C177.001465,112.009377 176.990814,111.966187 177.010071,112.317627 
	C177.064392,113.135674 177.099442,113.602295 177.134491,114.068909 
z"/>
<path fill="#FFD0D0" opacity="1.000000" stroke="none" 
	d="
M195.193787,62.155556 
	C194.590652,61.954212 193.987518,61.752869 193.083832,61.062798 
	C192.508087,60.383736 192.232880,60.193401 191.957672,60.003071 
	C191.957672,60.003071 192.008255,59.998123 191.867401,59.715290 
	C185.820206,53.621330 179.913849,47.810207 174.007492,41.999081 
	C183.150284,34.852158 193.723358,31.747740 205.560760,30.998474 
	C203.301163,38.403969 200.561707,45.783882 197.940231,53.205463 
	C197.129074,55.501904 196.638763,57.911678 196.006836,60.908562 
	C196.012131,61.547565 196.003082,62.013252 195.801804,62.054794 
	C195.600525,62.096333 195.193787,62.155556 195.193787,62.155556 
z"/>
<path fill="#FF8282" opacity="1.000000" stroke="none" 
	d="
M220.425140,154.065857 
	C220.021118,153.580902 220.015381,153.128235 220.004608,152.337997 
	C219.999573,152.000412 219.995117,152.005051 220.342300,151.962280 
	C227.534409,146.034927 234.469620,140.251190 241.193649,134.231567 
	C245.966217,129.958969 250.453781,125.368004 255.248672,120.898819 
	C255.428787,120.878517 255.785660,120.942268 256.160797,120.981888 
	C258.126648,121.756447 259.717407,122.491394 261.308136,123.226341 
	C260.433502,125.643929 260.090668,128.470200 258.597839,130.412704 
	C248.969742,142.941193 236.337601,150.864014 220.425140,154.065857 
z"/>
<path fill="#FC6868" opacity="1.000000" stroke="none" 
	d="
M261.655670,123.183868 
	C259.717407,122.491394 258.126648,121.756447 256.230499,120.620300 
	C255.976181,119.483925 256.027283,118.748741 256.078369,118.013565 
	C259.051880,108.113564 262.016998,98.211044 265.003204,88.314880 
	C266.094849,84.697281 267.236572,81.094803 268.644104,77.282326 
	C272.904724,93.080353 272.273193,108.467606 262.827545,122.667656 
	C262.670441,122.903847 262.283112,122.986885 261.655670,123.183868 
z"/>
<path fill="#541C1C" opacity="1.000000" stroke="none" 
	d="
M77.266235,258.948181 
	C71.371796,259.022400 65.907059,259.022400 61.365547,259.022400 
	C61.365547,251.111206 61.365547,243.448380 61.365547,235.500381 
	C63.354820,235.500381 64.873344,235.500381 66.422760,235.500381 
	C66.422760,238.971191 66.422760,242.190262 66.422760,245.269012 
	C69.505028,246.958466 73.313438,244.478180 76.211830,245.752914 
	C76.067612,246.373871 75.923393,246.994812 75.779182,247.615753 
	C72.754723,247.463791 69.730270,247.311813 65.833893,247.116028 
	C66.276421,250.777390 65.945450,256.254700 67.172340,256.629272 
	C70.669380,257.696930 74.800705,256.687012 78.762459,256.490601 
	C78.684265,256.665344 78.190102,257.769623 77.266235,258.948181 
z"/>
<path fill="#5D2828" opacity="1.000000" stroke="none" 
	d="
M351.967682,243.254608 
	C352.101654,241.051514 352.235596,238.848404 352.369568,236.645309 
	C351.837524,236.502136 351.305481,236.358948 350.773438,236.215775 
	C352.205536,235.567261 353.637634,234.918747 356.345673,233.692429 
	C356.345673,242.214432 356.345673,249.895493 356.345673,258.005005 
	C350.442261,260.751801 344.789825,260.179657 342.254608,255.935074 
	C339.858063,251.922775 340.874847,247.819565 345.945068,243.618790 
	C345.377197,245.638947 344.637817,246.924103 344.756958,248.123978 
	C345.008240,250.653503 345.271545,253.368774 346.415558,255.541473 
	C346.963104,256.581329 349.571442,256.978455 351.161316,256.818909 
	C351.839233,256.750885 352.829224,254.480865 352.752960,253.269714 
	C352.571747,250.391632 351.838898,247.548279 351.325317,244.285980 
	C351.599670,243.736862 351.815033,243.528061 351.967682,243.254608 
z"/>
<path fill="#FFEDED" opacity="1.000000" stroke="none" 
	d="
M173.693207,42.133560 
	C179.913849,47.810207 185.820206,53.621330 191.862045,59.740128 
	C183.799271,56.232666 175.601028,52.417534 167.199127,48.331951 
	C169.123276,46.130344 171.251083,44.199192 173.693207,42.133560 
z"/>
<path fill="#FFCECE" opacity="1.000000" stroke="none" 
	d="
M175.566803,111.974731 
	C170.368576,113.027817 164.782364,114.035583 159.185516,114.980133 
	C156.766144,115.388443 154.324738,115.666237 151.477112,116.009445 
	C150.085312,113.218391 149.109741,110.421204 148.136505,107.243423 
	C157.150742,108.543159 166.162628,110.223473 175.566803,111.974731 
z"/>
<path fill="#571F1F" opacity="1.000000" stroke="none" 
	d="
M103.792969,255.642761 
	C105.971283,256.132721 107.809959,256.376801 110.110054,256.682129 
	C108.184082,259.710632 105.500397,260.115326 102.818054,258.913574 
	C98.657326,257.049469 98.158211,253.266251 98.690758,249.207047 
	C99.217110,245.195053 101.726112,243.036423 105.517464,242.707520 
	C109.354820,242.374619 111.107903,244.847260 111.907211,248.854950 
	C108.248093,248.854950 104.871162,248.854950 100.164253,248.854950 
	C101.550346,251.611862 102.501839,253.504379 103.792969,255.642761 
z"/>
<path fill="#592222" opacity="1.000000" stroke="none" 
	d="
M326.291565,247.787323 
	C328.788727,244.731384 331.215363,241.538300 335.231750,243.134079 
	C337.063385,243.861832 338.188080,246.368912 340.473755,249.057343 
	C335.474365,249.057343 332.187378,249.057343 328.911133,249.057343 
	C328.704651,255.211929 330.626587,256.889954 337.342834,257.025116 
	C336.045197,257.816986 334.647736,259.382690 333.471863,259.230988 
	C331.372833,258.960205 328.407074,258.175354 327.615021,256.659180 
	C326.348206,254.234222 326.561066,251.036255 326.291565,247.787323 
z"/>
<path fill="#531A1A" opacity="1.000000" stroke="none" 
	d="
M315.029480,258.979126 
	C310.818909,256.504120 309.641327,252.500412 311.210663,248.965454 
	C312.388153,246.313110 315.641785,243.636307 318.467987,242.913620 
	C321.642365,242.101944 323.589203,245.091461 323.976013,248.930237 
	C320.355927,248.930237 316.952881,248.930237 313.538025,248.930237 
	C313.775543,255.415512 315.752167,257.069366 322.090851,256.165833 
	C320.909485,259.976898 318.146118,259.536621 315.029480,258.979126 
z"/>
<path fill="#1E1E1E" opacity="1.000000" stroke="none" 
	d="
M134.012268,215.892395 
	C135.567886,210.006485 139.846848,207.769974 143.235977,211.021545 
	C144.630905,212.359909 145.780182,215.420990 145.181351,216.987549 
	C144.483582,218.812958 141.520035,221.192444 139.954849,220.922684 
	C137.779282,220.547745 135.989655,217.933456 134.012268,215.892395 
z"/>
<path fill="#1E1E1E" opacity="1.000000" stroke="none" 
	d="
M186.739410,220.623520 
	C183.950958,220.061279 181.027451,219.840912 179.160217,218.322006 
	C178.172943,217.518936 178.257919,213.879028 179.247040,212.564102 
	C180.385056,211.051208 183.152618,209.862915 185.033600,210.080399 
	C186.693222,210.272278 189.193192,212.472717 189.361313,214.001831 
	C189.584702,216.033646 187.905167,218.274689 186.739410,220.623520 
z"/>
<path fill="#1E1E1E" opacity="1.000000" stroke="none" 
	d="
M252.038971,219.303040 
	C248.930069,221.866760 245.665512,222.277161 243.475311,219.323105 
	C242.293701,217.729385 241.947662,214.285294 242.906815,212.682999 
	C243.856949,211.095779 246.990341,209.915344 249.043213,210.080872 
	C252.986465,210.398804 254.114334,214.143280 252.038971,219.303040 
z"/>
<path fill="#FFEFEF" opacity="1.000000" stroke="none" 
	d="
M258.965210,56.656113 
	C252.568375,53.495899 246.137970,49.990978 238.467026,45.809902 
	C240.974686,44.391895 242.143906,43.730740 243.676575,43.033356 
	C246.055710,44.192310 248.368484,45.075180 250.023438,46.649548 
	C253.190475,49.662395 255.983429,53.068501 258.965210,56.656113 
z"/>
<path fill="#592323" opacity="1.000000" stroke="none" 
	d="
M164.021149,244.635620 
	C160.336380,247.586243 159.746017,254.400085 162.998825,258.803711 
	C160.762299,258.803711 158.707474,258.803711 156.570847,258.803711 
	C158.883682,254.550049 158.593079,239.445160 155.908905,236.316864 
	C157.417160,235.597870 158.812469,234.932709 161.030457,233.875366 
	C161.030457,237.416275 160.973312,240.315765 161.121704,243.204727 
	C161.136032,243.483734 162.425079,243.697266 163.562164,244.035568 
	C164.008331,244.298508 164.014740,244.467056 164.021149,244.635620 
z"/>
<path fill="#602D2D" opacity="1.000000" stroke="none" 
	d="
M146.476013,244.940247 
	C146.007599,243.956406 145.206268,243.015030 145.366714,242.803635 
	C146.441605,241.387390 147.721237,240.126541 149.077499,238.660660 
	C151.969604,244.841049 146.323242,252.647369 152.511749,258.156982 
	C148.694550,260.263184 146.972168,259.558411 146.694672,255.257278 
	C146.481705,251.956436 146.610977,248.633514 146.476013,244.940247 
z"/>
<path fill="#5A2424" opacity="1.000000" stroke="none" 
	d="
M134.753571,261.703308 
	C133.418854,262.311798 132.332367,262.660919 131.245895,263.010040 
	C131.738586,263.502411 132.231293,263.994781 132.723999,264.487152 
	C135.770538,256.553467 132.978424,254.963181 127.249733,243.112366 
	C129.097916,243.112366 130.854614,243.112366 132.628723,243.112366 
	C131.750076,247.434509 134.528503,252.924973 137.989731,253.563705 
	C136.988007,256.205627 135.994904,258.824768 134.753571,261.703308 
z"/>
<path fill="#4D1111" opacity="1.000000" stroke="none" 
	d="
M273.964813,257.899536 
	C269.094147,260.461639 266.820679,259.309784 266.606506,254.018265 
	C266.465393,250.532318 266.579803,247.036057 266.579803,243.259354 
	C266.512054,243.259354 267.730194,243.259354 269.397400,243.259354 
	C269.397400,246.582016 269.376251,249.858017 269.404388,253.133591 
	C269.425262,255.559097 270.034912,257.480408 273.537323,257.231140 
	C273.961334,257.457397 273.964813,257.899536 273.964813,257.899536 
z"/>
<path fill="#582222" opacity="1.000000" stroke="none" 
	d="
M189.058655,243.853210 
	C189.935852,243.802383 190.939148,244.011826 191.669540,243.657974 
	C196.034256,241.543442 198.687149,242.968658 199.023941,247.827927 
	C199.275543,251.458054 199.373489,255.098831 199.546249,258.874329 
	C198.514206,258.874329 196.562714,258.874329 195.667969,258.874329 
	C195.710220,254.736298 196.612244,250.364594 195.533875,246.553238 
	C194.600922,243.255783 191.653534,244.831314 189.388855,246.626953 
	C189.046021,245.577728 189.052338,244.715469 189.058655,243.853210 
z"/>
<path fill="#5D2828" opacity="1.000000" stroke="none" 
	d="
M235.699158,260.883209 
	C235.716400,259.352264 236.196564,257.633972 235.666534,256.324554 
	C233.875885,251.900574 231.726852,247.621689 229.657120,243.163025 
	C231.134216,243.163025 232.849213,243.163025 233.639267,243.163025 
	C234.872055,246.442764 235.231888,250.234421 237.308029,252.306000 
	C241.087982,256.077637 238.530823,258.256287 236.127594,260.887787 
	C235.773544,260.842102 235.699158,260.883209 235.699158,260.883209 
z"/>
<path fill="#521919" opacity="1.000000" stroke="none" 
	d="
M294.010803,255.391510 
	C293.888611,251.534546 293.754974,248.105103 293.585846,243.765244 
	C293.537476,243.788254 294.772583,243.200638 297.449310,241.927170 
	C297.449310,248.065140 297.449310,253.327927 297.449310,258.801483 
	C296.712616,258.801483 294.652954,258.801483 292.537384,258.801483 
	C293.070068,257.714813 293.534729,256.766937 294.010803,255.391510 
z"/>
<path fill="#521919" opacity="1.000000" stroke="none" 
	d="
M307.571960,258.262268 
	C305.983948,258.798370 304.247711,258.939667 302.277679,259.099976 
	C305.698517,251.655701 304.200043,245.325638 298.927887,243.607269 
	C300.598694,243.386154 302.622406,242.494843 303.839325,243.135666 
	C305.015839,243.755173 305.693054,245.887802 306.003540,247.470749 
	C306.675659,250.897324 306.973083,254.397415 307.571960,258.262268 
z"/>
<path fill="#5A2424" opacity="1.000000" stroke="none" 
	d="
M116.189606,243.458984 
	C120.326958,241.655762 119.460907,245.071060 119.564476,246.557480 
	C119.843193,250.558044 119.659706,254.590820 119.659706,258.831909 
	C118.098183,258.831909 116.513588,258.831909 114.973137,258.831909 
	C116.376251,254.227325 117.139221,249.676758 115.016258,245.070496 
	C114.884811,244.785294 115.586929,244.115921 116.189606,243.458984 
z"/>
<path fill="#582020" opacity="1.000000" stroke="none" 
	d="
M87.275742,243.136292 
	C88.470490,246.988556 89.324173,250.688110 90.129509,254.398148 
	C90.442032,255.837906 90.645294,257.301361 90.898331,258.754028 
	C90.396637,258.882477 89.894943,259.010925 89.393250,259.139404 
	C87.076942,253.871384 84.760643,248.603394 82.291481,242.987747 
	C83.806137,242.987747 85.360756,242.987747 87.275742,243.136292 
z"/>
<path fill="#582222" opacity="1.000000" stroke="none" 
	d="
M275.318665,257.626282 
	C275.568420,252.880219 277.484558,248.027405 274.626434,243.151581 
	C275.749390,243.087891 277.107849,243.010834 278.751770,242.917587 
	C279.006561,247.954056 279.249176,252.750153 279.531677,258.334564 
	C279.163055,258.263733 277.561340,257.955994 275.625000,257.613708 
	C275.290375,257.579193 275.318665,257.626282 275.318665,257.626282 
z"/>
<path fill="#F2EFEF" opacity="1.000000" stroke="none" 
	d="
M218.215179,260.046906 
	C219.942856,262.926270 218.234528,263.704102 214.984894,263.971130 
	C211.056946,263.443298 206.334000,266.226685 206.045822,259.936249 
	C206.045822,259.936249 206.053436,260.042877 206.373734,259.859680 
	C210.534409,259.799988 214.374802,259.923431 218.215179,260.046906 
z"/>
<path fill="#582020" opacity="1.000000" stroke="none" 
	d="
M180.064011,254.449341 
	C180.461929,256.174744 180.858109,257.465851 181.294968,258.889587 
	C179.569489,258.889587 177.784485,258.889587 176.320541,258.889587 
	C176.320541,254.088150 176.320541,249.304611 176.320541,243.844299 
	C176.719650,243.685165 178.009811,243.170746 180.062271,242.352371 
	C180.062271,246.608063 180.062271,250.311569 180.064011,254.449341 
z"/>
<path fill="#5D2828" opacity="1.000000" stroke="none" 
	d="
M256.847290,256.996613 
	C259.484558,250.774841 258.610931,247.472122 252.497009,242.385010 
	C252.064560,242.584412 252.095856,242.491043 252.095856,242.491043 
	C254.581329,243.408463 257.564819,243.746994 259.446655,245.366028 
	C263.151489,248.553452 262.240753,253.442322 257.378265,257.653503 
	C257.007111,257.469971 256.847290,256.996613 256.847290,256.996613 
z"/>
<path fill="#582020" opacity="1.000000" stroke="none" 
	d="
M254.312408,259.848022 
	C250.420853,259.606262 247.327209,258.005402 246.020432,254.182739 
	C244.822006,250.677094 245.628006,247.540146 248.991608,245.033081 
	C248.072632,250.902542 248.757843,256.043488 254.233154,259.516998 
	C254.445938,259.534393 254.312408,259.848022 254.312408,259.848022 
z"/>
<path fill="#4D1212" opacity="1.000000" stroke="none" 
	d="
M188.994003,243.498444 
	C189.052338,244.715469 189.046021,245.577728 189.096039,246.868607 
	C189.152359,251.019608 189.152359,254.741989 189.152359,258.734802 
	C188.115311,258.734802 186.398315,258.734802 185.308472,258.734802 
	C185.308472,254.041641 185.308472,249.429993 185.308472,244.004440 
	C186.068604,243.823746 187.498978,243.483704 188.994003,243.498444 
z"/>
<path fill="#4D1111" opacity="1.000000" stroke="none" 
	d="
M164.421097,244.731110 
	C164.014740,244.467056 164.008331,244.298508 163.916885,243.891418 
	C168.793243,242.042877 170.081329,242.942047 170.033997,247.915527 
	C170.000504,251.433823 170.027512,254.952698 170.027512,258.740570 
	C169.428101,258.740570 168.024353,258.740570 167.691544,258.740570 
	C167.691544,254.880554 167.849838,250.948898 167.561401,247.050278 
	C167.501877,246.245880 165.777878,245.564621 164.421097,244.731110 
z"/>
<path fill="#5A2424" opacity="1.000000" stroke="none" 
	d="
M211.928436,242.449066 
	C214.116180,242.961029 216.303925,243.473022 218.852051,244.069336 
	C217.157867,247.005676 215.459686,249.948944 213.331284,252.686234 
	C212.862411,252.311096 212.823776,252.141953 212.785141,251.972824 
	C214.975494,248.062241 213.359375,245.343201 210.323990,242.874573 
	C211.056870,242.541504 211.492645,242.495285 211.928436,242.449066 
z"/>
<path fill="#5D2828" opacity="1.000000" stroke="none" 
	d="
M218.130707,259.657837 
	C214.374802,259.923431 210.534409,259.799988 206.322220,259.873993 
	C205.880325,258.286682 205.810242,256.501892 206.187500,254.403885 
	C207.097809,254.671066 207.560776,255.251465 208.023743,255.831863 
	C209.961426,255.967834 212.011673,255.758987 213.802841,256.343781 
	C215.368713,256.855042 216.643082,258.259125 218.130707,259.657837 
z"/>
<path fill="#5A2424" opacity="1.000000" stroke="none" 
	d="
M205.698044,259.864502 
	C206.334000,266.226685 211.056946,263.443298 214.623962,263.950592 
	C212.302811,266.704468 206.471588,267.226776 204.449371,264.497162 
	C203.805710,263.628357 204.998047,261.399323 205.698044,259.864502 
z"/>
<path fill="#EDE9E9" opacity="1.000000" stroke="none" 
	d="
M208.042053,255.450195 
	C207.560776,255.251465 207.097809,254.671066 206.326080,254.066849 
	C205.339752,251.595428 204.662186,249.147842 203.866180,246.272430 
	C207.064560,248.476044 209.563950,250.198059 212.424240,251.946457 
	C212.823776,252.141953 212.862411,252.311096 212.973190,252.730316 
	C211.383667,253.676422 209.722000,254.372467 208.042053,255.450195 
z"/>
<path fill="#7A5656" opacity="1.000000" stroke="none" 
	d="
M71.856979,237.022339 
	C69.717545,236.917099 68.052422,236.811859 66.387291,236.706619 
	C66.416733,236.312286 66.446175,235.917969 66.475616,235.523636 
	C70.187057,235.523636 73.898499,235.523636 77.609932,235.523636 
	C77.645515,235.922531 77.681091,236.321426 77.716667,236.720306 
	C75.921539,236.820984 74.126419,236.921661 71.856979,237.022339 
z"/>
<path fill="#5B2626" opacity="1.000000" stroke="none" 
	d="
M351.680847,243.105423 
	C351.815033,243.528061 351.599670,243.736862 351.109375,243.963226 
	C350.012268,243.984375 349.127472,243.923309 348.242645,243.862244 
	C348.218964,243.560242 348.195282,243.258240 348.171600,242.956238 
	C349.245728,242.956238 350.319855,242.956238 351.680847,243.105423 
z"/>
<path fill="#FAF9F9" opacity="1.000000" stroke="none" 
	d="
M254.662384,259.809570 
	C254.312408,259.848022 254.445938,259.534393 254.608093,259.482239 
	C255.231979,258.667725 255.693726,257.905426 256.501404,257.069885 
	C256.847290,256.996613 257.007111,257.469971 257.042847,257.717224 
	C256.389832,258.566681 255.701096,259.168884 254.662384,259.809570 
z"/>
<path fill="#FAF9F9" opacity="1.000000" stroke="none" 
	d="
M252.109985,242.566711 
	C252.061798,243.015869 251.968185,243.482697 251.874573,243.949539 
	C251.687042,243.893677 251.499512,243.837830 251.311981,243.781967 
	C251.453644,243.503052 251.595322,243.224152 251.916412,242.718140 
	C252.095856,242.491043 252.064560,242.584412 252.109985,242.566711 
z"/>
<path fill="#7A5656" opacity="1.000000" stroke="none" 
	d="
M60.196095,235.923126 
	C59.995853,235.665619 60.080116,235.420547 60.164375,235.175461 
	C60.269783,235.428818 60.375187,235.682175 60.196095,235.923126 
z"/>
<path fill="#EDE9E9" opacity="1.000000" stroke="none" 
	d="
M207.988861,244.145813 
	C208.218933,244.373245 208.233139,244.606110 208.203766,244.833344 
	C208.201050,244.854279 207.792145,244.858856 207.788986,244.838043 
	C207.754684,244.612411 207.763824,244.380173 207.988861,244.145813 
z"/>
<path fill="#FF8282" opacity="1.000000" stroke="none" 
	d="
M215.322296,154.858414 
	C215.591812,154.570755 216.175751,154.341675 217.083969,154.202255 
	C216.817734,154.500275 216.227219,154.708633 215.322296,154.858414 
z"/>
<path fill="#EDE9E9" opacity="1.000000" stroke="none" 
	d="
M211.774796,242.291656 
	C211.492645,242.495285 211.056870,242.541504 210.309647,242.475800 
	C210.539200,242.287308 211.080170,242.210770 211.774796,242.291656 
z"/>
<path fill="#582222" opacity="1.000000" stroke="none" 
	d="
M274.201965,257.877930 
	C273.964813,257.899536 273.961334,257.457397 273.979706,257.237091 
	C274.305328,256.919373 274.612579,256.821991 275.119263,257.175476 
	C275.318665,257.626282 275.290375,257.579193 275.304077,257.572998 
	C274.970825,257.499512 274.677917,257.596039 274.201965,257.877930 
z"/>
<path fill="#5D2828" opacity="1.000000" stroke="none" 
	d="
M235.772339,260.799622 
	C235.771149,260.757141 235.801636,261.006042 235.801636,261.006042 
	C235.801636,261.006042 235.877579,260.803955 235.788361,260.843567 
	C235.699158,260.883209 235.773544,260.842102 235.772339,260.799622 
z"/>
<path fill="#FFBFBF" opacity="1.000000" stroke="none" 
	d="
M196.003082,62.013252 
	C196.003082,62.013252 196.012131,61.547565 196.012451,61.315666 
	C209.704620,55.991566 223.396500,50.899368 236.989227,45.844044 
	C236.989227,52.676506 236.989227,58.871540 236.994614,65.533287 
	C236.803894,66.015068 236.607788,66.030144 235.685959,66.058296 
	C221.974533,64.718674 208.988800,63.365963 196.003082,62.013252 
z"/>
<path fill="#FEDDDD" opacity="1.000000" stroke="none" 
	d="
M177.026367,111.267197 
	C181.015472,99.875229 184.959976,88.711632 189.018417,77.589607 
	C190.644745,73.132729 192.521759,68.767326 194.668961,64.600876 
	C197.591690,78.210426 200.130112,91.579391 202.236877,105.056122 
	C193.533768,107.431328 185.262299,109.698761 176.990814,111.966187 
	C176.990814,111.966187 177.001465,112.009377 177.024216,112.005669 
	C177.046967,112.001961 177.027496,111.512245 177.026367,111.267197 
z"/>
<path fill="#FC6464" opacity="1.000000" stroke="none" 
	d="
M202.668518,104.948349 
	C200.130112,91.579391 197.591690,78.210426 194.981232,64.445877 
	C194.966690,63.627930 195.024185,63.205566 195.137726,62.469376 
	C195.193787,62.155556 195.600525,62.096333 195.801804,62.054794 
	C208.988800,63.365963 221.974533,64.718674 235.392609,66.089722 
	C235.824966,66.108055 235.930298,66.560791 235.787857,67.061691 
	C224.850708,79.989883 214.056000,92.417175 203.160278,104.846039 
	C203.059235,104.847603 202.668518,104.948349 202.668518,104.948349 
z"/>
<path fill="#FFEDED" opacity="1.000000" stroke="none" 
	d="
M192.051758,60.243614 
	C192.232880,60.193401 192.508087,60.383736 192.893524,60.804405 
	C192.717789,60.851212 192.431824,60.667683 192.051758,60.243614 
z"/>
<path fill="#FFCECE" opacity="1.000000" stroke="none" 
	d="
M203.261307,104.844467 
	C214.056000,92.417175 224.850708,79.989883 235.832855,67.289711 
	C238.963928,74.658356 242.023071,82.257919 244.819733,89.952881 
	C247.800720,98.155060 250.503571,106.458031 253.408844,114.688400 
	C253.817703,115.846672 254.686554,116.842567 255.710419,117.963593 
	C256.027283,118.748741 255.976181,119.483925 255.855377,120.580688 
	C255.785660,120.942268 255.428787,120.878517 254.947968,120.688019 
	C237.663879,115.538559 220.860596,110.579605 203.910736,105.372833 
	C203.596558,105.031487 203.428925,104.937973 203.261307,104.844467 
z"/>
<path fill="#FF8282" opacity="1.000000" stroke="none" 
	d="
M203.160278,104.846039 
	C203.428925,104.937973 203.596558,105.031487 203.890564,105.792557 
	C207.685593,116.329666 211.446213,126.166397 214.985428,136.082153 
	C216.854477,141.318695 218.337708,146.692963 219.995117,152.005051 
	C219.995117,152.005051 219.999573,152.000412 220.002106,151.998535 
	C213.703064,146.200653 207.459091,140.340424 201.085114,134.625168 
	C193.382828,127.718864 185.570435,120.935364 177.470093,114.083801 
	C177.099442,113.602295 177.064392,113.135674 177.010071,112.317627 
	C185.262299,109.698761 193.533768,107.431328 202.236877,105.056122 
	C202.668518,104.948349 203.059235,104.847603 203.160278,104.846039 
z"/>
<path fill="#FC6262" opacity="1.000000" stroke="none" 
	d="
M220.342300,151.962280 
	C218.337708,146.692963 216.854477,141.318695 214.985428,136.082153 
	C211.446213,126.166397 207.685593,116.329666 204.037140,106.040382 
	C220.860596,110.579605 237.663879,115.538559 254.767853,120.708321 
	C250.453781,125.368004 245.966217,129.958969 241.193649,134.231567 
	C234.469620,140.251190 227.534409,146.034927 220.342300,151.962280 
z"/>
</svg>